@startuml

hide empty methods

!procedure $schema($name)
package "$name" as $name <<Rectangle>>
!endprocedure

!procedure $table($name)
entity "<b>$name</b>" as $name << (T, Orange) table >>
!endprocedure

!procedure $view($name)
entity "<b>$name</b>" as $name << (V, Aquamarine) view >>
!endprocedure

!procedure $pk($name)
<color:#GoldenRod><&key></color> <b>$name</b>
!endprocedure

!procedure $fk($name)
<color:#Silver><&key></color> $name
!endprocedure

!procedure $column($name)
{field} <color:#White><&media-record></color> $name
!endprocedure

title "Toast Core"

left to right direction

$schema("Users") {
    $table("Users") {
        * $pk("id") INTEGER AUTOINCREMENT UNIQUE
        * $column("username") VARCHAR(50) UNIQUE
        * $column("password") VARCHAR(255)
        * $column("role") VARCHAR(100)
          $column("discordID") VARCHAR(255) UNIQUE
    }

    $table("MindustryUserServerData") {
        * $pk("id") INTEGER AUTOINCREMENT UNIQUE
        * $fk("mindustryUserID") INTEGER
        * $column("server") VARCHAR(255)
        * $column("xp") INTEGER DEFAULT 0
        * $column("playTime") BIGINT DEFAULT 0
        * $column("activePlayTime") BIGINT DEFAULT 0
        * $column("mindustryUSID") VARCHAR(64) UNIQUE
          $fk("userID") INTEGER
    }

    $table("MindustryUser") {
        * $pk("id") INTEGER AUTOINCREMENT UNIQUE
        * $column("mindustryUUID") VARCHAR(255) UNIQUE
    }

    $table("MindustryUserIPAddresses") {
        * $pk("id") INTEGER AUTOINCREMENT UNIQUE
        * $fk("mindustryUserID") INTEGER
        * $column("ipAddress") INTEGER
    }

    $table("MindustryUserMindustryNames") {
        * $pk("id") INTEGER AUTOINCREMENT UNIQUE
        * $fk("mindustryUserID") INTEGER
        * $column("name") VARCHAR(50)
        * $column("strippedName") VARCHAR(50)
    }

    $table("UserPunishments") {
        * $pk("id") INTEGER AUTOINCREMENT UNIQUE
        * $column("server") VARCHAR(255)
        * $column("reason") TEXT
        * $column("punishedAt") DATETIME
          $column("endAt") DATETIME
          $column("pardonedAt") DATETIME
        * $column("type") VARCHAR(50) COMMENT Kick, VoteKick, Ban, Mute
          $fk("mindustryUserID") INTEGER
          $fk("userID") INTEGER
          $fk("targetMindustryUserID") INTEGER
          $fk("targetUserID") INTEGER
    }
    $table("UserVoteKickVotes") {
        * $pk("id") INTEGER AUTOINCREMENT UNIQUE
        * $fk("mindustryUserID") INTEGER
        * $fk("userPunishmentID") INTEGER
        * $column("vote") BOOLEAN
    }

    Users::id ||--o{ MindustryUserServerData::userID
    MindustryUserServerData::mindustryUserID }--|| MindustryUser::id

    MindustryUser::id ||--{ MindustryUserIPAddresses::mindustryUserID
    MindustryUser::id ||--{ MindustryUserMindustryNames::mindustryUserID

    UserPunishments::userID }o--|| Users::id
    UserPunishments::mindustryUserID }o--|| MindustryUser::id
    UserPunishments::targetUserID }o--|| Users::id
    UserPunishments::targetMindustryUserID }o--|| MindustryUser::id

    UserVoteKickVotes::userPunishmentID }o--|| UserPunishments::id
    UserVoteKickVotes::mindustryUserID }o--|| MindustryUser::id
}

$schema("Map") {
    $table("Map") {
        * $pk("id") INTEGER AUTOINCREMENT UNIQUE
        * $column("name") VARCHAR(100)
        * $column("description") TEXT
        * $column("author") VARCHAR(100)
        * $column("width") INTEGER
        * $column("height") INTEGER
        * $column("file") MEDIUMBLOB
        * $fk("submittedByUserID") INTEGER
        * $column("active") BOOLEAN
        * $column("submittedAt") DATETIME
          $fk("reviewedByUserID") INTEGER
        * $column("reviewStatus") VARCHAR(50) COMMENT Pending, Accepted, Rejected
          $column("reviewedAt") DATETIME
          $fk("obsoletedBy") INTEGER
    }

    $table("MapGameMode") {
        * $pk("id") INTEGER AUTOINCREMENT UNIQUE
        * $fk("mapID") INTEGER
        * $column("gameMode") VARCHAR(100)
    }

    $table("MapRating") {
        * $pk("id") INTEGER AUTOINCREMENT UNIQUE
        * $fk("mapID") INTEGER
        * $fk("userID") INTEGER
        * $fk("gameHistoryID") INTEGER
        * $column("rating") Integer
        * $column("description") TEXT
    }

    Map::submittedByUserID }o--|| Users.Users::id
    Map::reviewedByUserID }o--|| Users.Users::id
    Map::obsoletedBy ||--|| Map::id
    MapRating::mapID }o--|| Map::id
    MapRating::userID |o--|| Users.Users::id

    MapGameMode::mapID }--|| Map::id
}

$schema("GameHistory") {
    $table("GameHistory") {
        * $pk("id") INTEGER AUTOINCREMENT UNIQUE
        * $column("createdAt") DATETIME
        * $column("playTime") BIGINT
        * $fk("mapID") INTEGER
        * $column("gameModeID") VARCHAR(255)
        * $column("serverID") VARCHAR(255)
        * $column("winnerTeam") VARCHAR(255)
        * $column("unitsCreated") INTEGER
        * $column("enemiesKilled") INTEGER
        * $column("wavesLasted") INTEGER
        * $column("buildingsConstructed") INTEGER
        * $column("buildingsDeconstructed") INTEGER
        * $column("buildingsDestroyed") INTEGER
    }

    $table("GameHistoryPlayer") {
        * $pk("id") INTEGER AUTOINCREMENT UNIQUE
        * $fk("gameHistoryID") INTEGER
        * $fk("userID") INTEGER COMMENT In seconds
        * $column("playTime") BIGINT
        * $column("activePlayTime") BIGINT
    }

    GameHistoryPlayer::gameHistoryID }o--|| GameHistory::id
    GameHistoryPlayer::userID }o--|| Users.Users::id
    GameHistory::mapID }o--|| Map.Map::id
}

Map.MapRating::gameHistoryID }o--|| GameHistory.GameHistory::id

@enduml